<svg xmlns="http://www.w3.org/2000/svg" width="216" height="22" viewBox="0 0 216 22" fill="none"><g clip-path="url(#b3f89d60-af55-4442-8dcd-61508546f188)"><path fill-rule="evenodd" clip-rule="evenodd" d="M8.866 7.07c-2.151 0-3.81 1.66-3.81 3.93 0 2.19 1.648 3.88 3.77 3.93.94-.006 1.846-.376 3.02-1.333.848-.693 1.688-1.563 2.678-2.63-.963-1.037-1.786-1.886-2.617-2.564C10.725 7.44 9.814 7.07 8.866 7.07Zm9.103.166c-.946-1.01-1.903-1.977-2.87-2.766C13.405 3.09 11.396 2 8.866 2 3.809 2 0 6.044 0 11c0 4.901 3.808 8.911 8.759 9h.045c2.531 0 4.54-1.09 6.232-2.47.989-.807 1.967-1.8 2.933-2.832.966 1.033 1.944 2.025 2.932 2.832 1.692 1.38 3.702 2.47 6.233 2.47C32.112 20 36 15.972 36 11c0-5.005-3.982-9-8.928-9-2.531 0-4.54 1.09-6.233 2.47-.967.79-1.924 1.757-2.87 2.766Zm3.445 3.73c.99 1.068 1.83 1.938 2.679 2.63 1.182.965 2.093 1.334 3.041 1.334 2.105 0 3.81-1.677 3.81-3.93 0-2.22-1.735-3.93-3.872-3.93-.948 0-1.86.369-3.041 1.333-.831.678-1.654 1.527-2.617 2.563Z" fill="#D82828"/></g><path d="M45.078 18h12.056v-3.3h-8.162v-3.366h6.886V8.298h-6.886V5.482h8.03V2.27H45.078V18Zm13.594 0h3.587V6.736h-3.587V18Zm0-12.826h3.587V2.27h-3.587v2.904Zm10.543 16.72c1.672 0 3.146-.374 4.136-1.254.902-.814 1.496-2.046 1.496-3.74V6.736h-3.432v1.21h-.044c-.66-.946-1.672-1.54-3.168-1.54-2.794 0-4.73 2.332-4.73 5.632 0 3.454 2.354 5.346 4.884 5.346 1.364 0 2.222-.55 2.882-1.298h.088v1.122c0 1.364-.638 2.156-2.156 2.156-1.188 0-1.782-.506-1.98-1.1h-3.476c.352 2.354 2.398 3.63 5.5 3.63Zm-.022-7.172c-1.342 0-2.222-1.1-2.222-2.794 0-1.716.88-2.816 2.222-2.816 1.496 0 2.288 1.276 2.288 2.794 0 1.584-.726 2.816-2.288 2.816ZM76.57 18h3.586v-6.226c0-1.386.792-2.376 1.98-2.376 1.166 0 1.76.814 1.76 2.002V18h3.586v-7.326c0-2.508-1.452-4.268-3.916-4.268-1.562 0-2.53.638-3.344 1.716h-.066V2.27H76.57V18Zm16.798.132c.968 0 1.65-.088 1.958-.176v-2.618c-.132 0-.484.022-.792.022-.77 0-1.254-.22-1.254-1.1V8.98h2.046V6.736H93.28V3.172h-3.498v3.564h-1.496V8.98h1.496v6.05c0 2.42 1.496 3.102 3.586 3.102Zm8.258.22c2.948 0 5.126-1.276 5.126-3.74 0-2.882-2.332-3.388-4.312-3.718-1.43-.264-2.706-.374-2.706-1.166 0-.704.682-1.034 1.562-1.034.99 0 1.672.308 1.804 1.32h3.3c-.176-2.222-1.892-3.608-5.082-3.608-2.662 0-4.862 1.232-4.862 3.608 0 2.64 2.09 3.168 4.048 3.498 1.496.264 2.86.374 2.86 1.386 0 .726-.682 1.122-1.76 1.122-1.188 0-1.936-.55-2.068-1.672h-3.388c.11 2.486 2.178 4.004 5.478 4.004Zm6.29-.352h3.586v-6.226c0-1.386.792-2.376 1.98-2.376 1.166 0 1.76.814 1.76 2.002V18h3.586v-7.326c0-2.508-1.452-4.268-3.916-4.268-1.562 0-2.53.638-3.344 1.716h-.066V2.27h-3.586V18Zm12.547 0h3.586V6.736h-3.586V18Zm0-12.826h3.586V2.27h-3.586v2.904ZM126.604 18h3.586V9.024h2.112V6.736h-2.112v-.55c0-1.254.748-1.364 2.112-1.32v-2.53c-1.936-.198-3.806.022-4.774.968-.594.594-.924 1.452-.924 2.618v.814h-1.452v2.288h1.452V18Zm11.3.132c.968 0 1.65-.088 1.958-.176v-2.618c-.132 0-.484.022-.792.022-.77 0-1.254-.22-1.254-1.1V8.98h2.046V6.736h-2.046V3.172h-3.498v3.564h-1.496V8.98h1.496v6.05c0 2.42 1.496 3.102 3.586 3.102Zm10.777-3.41V5.526h2.332c2.442 0 3.828 1.848 3.828 4.708 0 2.882-1.32 4.488-3.872 4.488h-2.288ZM144.787 18h6.468c1.98 0 3.564-.506 4.796-1.43 1.76-1.342 2.728-3.564 2.728-6.336 0-4.818-2.926-7.964-7.282-7.964h-6.71V18Zm20.792.33c1.43 0 2.574-.374 3.52-1.034.99-.682 1.65-1.65 1.892-2.662h-3.498c-.308.704-.924 1.122-1.87 1.122-1.474 0-2.31-.946-2.53-2.464h8.096c.022-2.288-.638-4.246-1.98-5.478-.968-.88-2.244-1.408-3.85-1.408-3.432 0-5.786 2.574-5.786 5.94 0 3.41 2.288 5.984 6.006 5.984Zm-2.464-7.172c.242-1.342.946-2.2 2.31-2.2 1.166 0 2.002.858 2.134 2.2h-4.444ZM175.037 18h3.872l3.894-11.264h-3.586l-1.562 5.082a65.596 65.596 0 0 0-.616 2.266h-.044s-.286-1.144-.616-2.266l-1.54-5.082h-3.696L175.037 18Zm8.787 0h3.894v-5.412l1.32-1.386L193.57 18h4.532l-6.38-9.416 6.028-6.314h-4.62l-5.412 5.698V2.27h-3.894V18Zm15.12 0h3.586V6.736h-3.586V18Zm0-12.826h3.586V2.27h-3.586v2.904Zm9.773 12.958c.968 0 1.65-.088 1.958-.176v-2.618c-.132 0-.484.022-.792.022-.77 0-1.254-.22-1.254-1.1V8.98h2.046V6.736h-2.046V3.172h-3.498v3.564h-1.496V8.98h1.496v6.05c0 2.42 1.496 3.102 3.586 3.102Z" fill="#000"/><defs><clipPath id="b3f89d60-af55-4442-8dcd-61508546f188"><path fill="#fff" d="M0 2h36v18H0z"/></clipPath></defs></svg>
