<svg width="724" height="180" viewBox="0 0 724 180" fill="none" xmlns="http://www.w3.org/2000/svg"><path fill-rule="evenodd" clip-rule="evenodd" d="M71.292 81.801c-.81-11.518-4.672-21.197-14.028-21.197-7.566 0-13.353 8.998-14.218 21.197h28.246zM56.826 135.46C25.41 135.46 14 110.902 14 94.403c0-8.421 1.427-14.565 3.858-19.487 4.846-9.818 13.834-16.956 22.032-20.083 5.87-2.237 13.466-3.112 18.03-3.112 19.586 0 36.806 12.532 39.983 31.12l-8.486 7.734H42.753c.085 19.015 7.76 29.753 22.639 29.753 8.635 0 16.897-3.669 22.18-11.22l.563-.796 6.561 3.023c-2.868 7.695-16.404 24.125-37.865 24.125h-.005zm51.263-1.084V75.91l26.894-24.651v83.117h-26.894zm182.058-14.889V74.882c0-5.533-2.242-10.808-8.799-10.808-4.266 0-7.745 1.427-10.639 4.37-2.893 2.948-4.3 6.606-4.3 11.185v55.189h-20.172l-6.721-.004V48.927l26.893-24.498v38.999c5.548-6.86 14.123-10.335 25.562-10.335 10.618 0 25.069 7.074 25.069 26.536v55.185h-26.893v-15.327zm228.503 0V74.882c0-5.533-2.242-10.808-8.799-10.808-4.27 0-7.75 1.427-10.638 4.37-2.898 2.948-4.305 6.606-4.305 11.185v55.189H474.74l-6.726-.004V48.927l26.894-24.498v38.999c5.552-6.86 14.128-10.335 25.566-10.335 10.619 0 25.065 7.074 25.065 26.536v55.185h-26.894v-15.327h.005zm-161.08 15.401c-13.263 0-21.082-8.013-21.082-18.04V61.116H323.15l40.231-36.687v27.76h19.587v8.927h-19.587V116.6c0 5.28 4.882 8.257 11.523.825l5.056 4.141c-5.786 10.062-13.502 13.323-22.39 13.323zM184.793 58.79c-8.326 0-11.021 5.622-11.021 9.863 0 8.043 3.555 12.06 19.666 25.949 6.661-6.8 6.661-15.033 6.661-18.637 0-5.379-4.971-17.17-15.306-17.17v-.005zm-6.363 57.645c-6.229 6.06-10.31 12.189-10.31 21.625 0 15.186 10.623 22.022 18.165 22.022 11.14 0 16.076-9.256 16.076-15.202 0-11.444-11.498-18.711-23.931-28.445zM185.415 169c-7.457 0-14.417-1.049-20.705-3.112-6.383-2.098-11.558-5.304-15.386-9.535-3.907-4.315-5.891-9.529-5.891-15.495 0-2.684.388-5.239 1.154-7.665l25.318-23.3c-6.284-4.966-10.837-9.395-14.451-13.909-4.156-5.18-6.264-11.13-6.264-17.682 0-5.757 1.829-10.753 5.433-14.864 3.53-4.017 8.267-7.074 14.079-9.072 5.717-1.964 12.104-2.963 18.98-2.963 10.24 0 18.78 2.098 25.397 6.224 6.84 4.275 10.305 10.026 10.305 17.095 0 5.484-2.172 10.43-6.462 14.695-3.729 3.709-9.117 7.337-16.057 10.807 6.254 4.802 11.091 8.68 14.406 11.543 3.754 3.246 7.109 7.124 9.962 11.533 2.938 4.534 4.425 9.5 4.425 14.755 0 6.045-1.964 11.503-5.836 16.22-3.813 4.649-9.162 8.312-15.893 10.887-6.651 2.546-14.227 3.838-22.514 3.838zM123.057 43.872c-8.252 0-14.968-6.702-14.968-14.939 0-8.232 6.711-14.933 14.963-14.933 8.252 0 14.968 6.701 14.968 14.933 0 8.237-6.711 14.939-14.963 14.939zm439.05 90.648V76.05l26.889-24.647v83.117h-26.889zm14.964-90.648c-8.253 0-14.964-6.702-14.964-14.939 0-8.232 6.711-14.933 14.964-14.933 8.252 0 14.963 6.701 14.963 14.933 0 8.237-6.711 14.939-14.963 14.939zm-145.098 8.853c3.997.974 7.83 3.206 11.185 4.18l6.9-4.652-.746 26.317h-6.542c-2.411-14.58-15.584-20.918-21.907-20.918-6.065 0-9.048 3.077-9.048 7.814 0 15.103 45.078 22.554 45.078 47.057 0 4.529-1.59 8.54-4.772 12.04-3.186 3.495-7.472 6.174-12.84 8.023-5.369 1.855-11.31 2.784-17.797 2.784-19.894 0-35.608-3.977-35.608-3.977l1.69-24.995 6.452.348c3.51 16.42 12.558 21.421 21.839 21.421 7.775 0 12.661-4.752 12.661-10.29 0-14.705-41.892-21.103-41.892-43.83 0-6.587 3.122-13.274 9.371-17.081 6.244-3.803 13.864-5.707 22.862-5.707 4.743 0 9.112.487 13.114 1.461v.005zm251.639 83.436c-13.268 0-21.088-8.014-21.088-18.041V62.389h-13.337l40.231-36.687v27.759h19.587v8.928h-19.587v55.483c0 5.279 4.887 8.262 11.523.825l5.061 4.141c-5.786 10.062-13.502 13.323-22.39 13.323" fill="#0D3636"/><path fill-rule="evenodd" clip-rule="evenodd" d="M637.758 53.656V31.38c.731-4.424 5.329-6.363 11.413.447l5.056-4.146c-5.786-10.056-13.501-13.322-22.39-13.322-13.268 0-21.087 10.26-21.087 21.023v15.35L597.526 62.58h13.224v25.173l.114.15v46.927h26.894V62.58h22.579v-8.923h-22.579z" fill="#0D3636"/></svg>
